<svg xmlns="http://www.w3.org/2000/svg" viewBox="0 0 1672 941" role="img" aria-label="コーヒーとさつまいもの甘味で過ごすカフェ時間">
  <rect width="1672" height="941" fill="#d7aa72"/>
  <path d="M0 160h1672M0 318h1672M0 476h1672M0 634h1672M0 792h1672" stroke="#b7824e" stroke-width="4" opacity=".34"/>
  <rect x="842" y="448" width="504" height="206" rx="18" fill="#e7dac4" opacity=".72"/>
  <ellipse cx="1188" cy="450" rx="180" ry="180" fill="#fffaf1" stroke="#d8c7ac" stroke-width="7"/>
  <ellipse cx="1188" cy="450" rx="132" ry="132" fill="#c9823b"/>
  <ellipse cx="1188" cy="450" rx="96" ry="96" fill="#e8c08d"/>
  <path d="M1126 440c44-48 94-46 134 0-34 24-78 24-134 0z" fill="#fffaf1" opacity=".88"/>
  <path d="M1138 426c30 28 70 28 108 0" fill="none" stroke="#fffaf1" stroke-width="10" opacity=".8"/>
  <path d="M1358 408c92-20 118 88 30 124" fill="none" stroke="#fffaf1" stroke-width="25"/>
  <ellipse cx="720" cy="510" rx="320" ry="128" fill="#f8f1e4" stroke="#c9b38f" stroke-width="7"/>
  <path d="M554 502c48-116 178-138 260-50-40 116-178 138-260 50z" fill="#8f4c35"/>
  <path d="M610 504c38-70 118-84 170-28-34 72-118 84-170 28z" fill="#e4a338"/>
  <path d="M770 546c58-90 174-94 240-18-60 88-176 94-240 18z" fill="#8f4c35"/>
  <path d="M824 544c42-48 104-50 148-12-42 52-104 54-148 12z" fill="#e4a338"/>
  <rect x="500" y="384" width="128" height="176" rx="18" fill="#d7a25d"/>
  <rect x="632" y="386" width="124" height="178" rx="18" fill="#c9823b"/>
  <path d="M488 382c84 48 186 48 282 0" stroke="#f4d39b" stroke-width="12" opacity=".55"/>
  <path d="M566 664c190 76 392 70 598-12" fill="none" stroke="#7f583a" stroke-width="16" opacity=".34"/>
</svg>
