<svg xmlns="http://www.w3.org/2000/svg" viewBox="0 0 1672 941" role="img" aria-label="植物に囲まれた白壁と木の入口があるカフェ外観">
  <rect width="1672" height="941" fill="#cfe2ec"/>
  <rect x="0" y="126" width="972" height="815" fill="#fbfaf6"/>
  <rect x="780" y="224" width="420" height="504" rx="8" fill="#c68c55"/>
  <rect x="824" y="278" width="332" height="392" rx="8" fill="#a9c2b5" opacity=".72"/>
  <path d="M978 278v392M824 474h332" stroke="#f8f4ec" stroke-width="12"/>
  <rect x="710" y="178" width="560" height="76" fill="#d7aa72"/>
  <rect x="690" y="252" width="596" height="32" fill="#8b5e35"/>
  <rect x="1088" y="536" width="402" height="190" fill="#594231"/>
  <path d="M1088 586h402M1088 642h402M1088 698h402" stroke="#8f6949" stroke-width="10"/>
  <rect x="1218" y="330" width="390" height="18" rx="9" fill="#e5dccb"/>
  <path d="M1412 330c-74-146-232-146-306 0h306c74-146 232-146 306 0h-306z" fill="#f4efe4"/>
  <path d="M1412 330v292" stroke="#6a5a46" stroke-width="10"/>
  <rect x="0" y="736" width="1672" height="205" fill="#d0c2aa"/>
  <path d="M0 786h1672M0 842h1672M0 898h1672" stroke="#b4a184" stroke-width="4" opacity=".6"/>
  <g stroke="#4f6f52" stroke-width="10" stroke-linecap="round" fill="none">
    <path d="M184 744c8-170 52-318 132-446"/>
    <path d="M292 620c-86-18-146 6-210 70"/>
    <path d="M282 484c64-76 126-98 220-76"/>
    <path d="M502 754c-16-126 18-230 102-312"/>
    <path d="M600 606c66-54 128-62 206-26"/>
    <path d="M1288 774c-4-120 32-214 108-284"/>
  </g>
  <g fill="#789b62">
    <circle cx="130" cy="678" r="36"/><circle cx="248" cy="600" r="34"/><circle cx="348" cy="430" r="38"/><circle cx="472" cy="418" r="34"/>
    <circle cx="560" cy="688" r="40"/><circle cx="680" cy="588" r="36"/><circle cx="778" cy="584" r="32"/>
    <circle cx="1338" cy="676" r="44"/><circle cx="1414" cy="560" r="38"/><circle cx="1482" cy="620" r="36"/>
  </g>
  <g fill="#a66b41">
    <rect x="126" y="722" width="142" height="150" rx="18"/>
    <rect x="520" y="720" width="154" height="152" rx="18"/>
    <rect x="1306" y="716" width="164" height="156" rx="18"/>
  </g>
  <rect x="548" y="342" width="116" height="74" rx="6" fill="#fffaf1" stroke="#4f6f52" stroke-width="8"/>
  <circle cx="608" cy="260" r="34" fill="#263328"/>
  <circle cx="608" cy="260" r="18" fill="#f1c06d"/>
</svg>
