<svg xmlns="http://www.w3.org/2000/svg" viewBox="0 0 1672 941" role="img" aria-label="鎌倉野菜を思わせる彩り豊かな軽食プレート">
  <rect width="1672" height="941" fill="#f6efe2"/>
  <rect y="0" width="1672" height="941" fill="#d9b27e"/>
  <path d="M0 112h1672M0 242h1672M0 372h1672M0 502h1672M0 632h1672M0 762h1672" stroke="#bd8b59" stroke-width="4" opacity=".36"/>
  <circle cx="1036" cy="505" r="330" fill="#f6f1e8" stroke="#d0bda2" stroke-width="8"/>
  <ellipse cx="1036" cy="525" rx="270" ry="220" fill="#fdfaf4"/>
  <circle cx="815" cy="546" r="82" fill="#d69b56"/>
  <path d="M748 542c38-45 100-55 146-18" stroke="#f1d6aa" stroke-width="12" opacity=".75"/>
  <g fill="#79a85c">
    <ellipse cx="1020" cy="372" rx="48" ry="96" transform="rotate(42 1020 372)"/>
    <ellipse cx="1110" cy="392" rx="42" ry="88" transform="rotate(-24 1110 392)"/>
    <ellipse cx="1156" cy="486" rx="48" ry="92" transform="rotate(76 1156 486)"/>
    <ellipse cx="1012" cy="577" rx="42" ry="96" transform="rotate(-76 1012 577)"/>
    <ellipse cx="925" cy="456" rx="44" ry="92" transform="rotate(20 925 456)"/>
  </g>
  <g fill="#a6c66d">
    <circle cx="996" cy="462" r="40"/><circle cx="1088" cy="486" r="34"/><circle cx="1116" cy="554" r="28"/><circle cx="930" cy="526" r="31"/>
  </g>
  <g fill="#d95c42">
    <circle cx="1186" cy="402" r="36"/><circle cx="1206" cy="520" r="30"/><circle cx="1044" cy="634" r="32"/>
  </g>
  <g fill="#f0bd4b">
    <ellipse cx="1258" cy="598" rx="56" ry="34" transform="rotate(-22 1258 598)"/>
    <ellipse cx="1292" cy="472" rx="50" ry="30" transform="rotate(16 1292 472)"/>
  </g>
  <g fill="#7f4f35">
    <circle cx="967" cy="652" r="16"/><circle cx="1005" cy="660" r="14"/><circle cx="1040" cy="672" r="16"/><circle cx="1080" cy="660" r="13"/>
  </g>
  <rect x="1164" y="172" width="230" height="150" rx="75" fill="#fffaf1"/>
  <path d="M1210 246c48-38 96-38 144 0" fill="none" stroke="#c9823b" stroke-width="10" opacity=".55"/>
  <rect x="1264" y="178" width="206" height="118" rx="16" fill="#fffaf1" stroke="#d6c6ab" stroke-width="5"/>
  <path d="M1284 224h162" stroke="#d7a66a" stroke-width="10" opacity=".55"/>
  <path d="M1284 260h118" stroke="#7d996d" stroke-width="10" opacity=".45"/>
</svg>
