<svg xmlns="http://www.w3.org/2000/svg" viewBox="0 0 1672 941" role="img" aria-label="自然光の入る木の温もりのあるカフェ店内">
  <defs>
    <linearGradient id="wall" x1="0" x2="1" y1="0" y2="1">
      <stop offset="0" stop-color="#fbf4e8"/>
      <stop offset="1" stop-color="#e7dac4"/>
    </linearGradient>
    <linearGradient id="wood" x1="0" x2="1">
      <stop offset="0" stop-color="#d8ae78"/>
      <stop offset="1" stop-color="#9b6a3e"/>
    </linearGradient>
    <linearGradient id="glass" x1="0" x2="1">
      <stop offset="0" stop-color="#dff1e4" stop-opacity=".9"/>
      <stop offset="1" stop-color="#88aa91" stop-opacity=".72"/>
    </linearGradient>
  </defs>
  <rect width="1672" height="941" fill="url(#wall)"/>
  <rect y="666" width="1672" height="275" fill="#d9b27e"/>
  <path d="M0 692h1672M0 742h1672M0 792h1672M0 842h1672M0 892h1672" stroke="#bb8958" stroke-opacity=".45" stroke-width="3"/>
  <rect x="742" y="112" width="704" height="528" rx="10" fill="url(#glass)" stroke="#f8fbf4" stroke-width="18"/>
  <path d="M976 112v528M1200 112v528M742 368h704" stroke="#f8fbf4" stroke-width="12"/>
  <path d="M788 554c88-84 142-176 270-182 116-5 171 60 274 18 45-18 73-46 114-72v322H788z" fill="#78956e" opacity=".45"/>
  <path d="M1035 321c55-108 154-114 219-18 50 73 92 66 166 47v290h-385z" fill="#4f6f52" opacity=".3"/>
  <rect x="1054" y="456" width="315" height="122" rx="10" fill="#26442f" opacity=".68"/>
  <path d="M1014 477h399" stroke="#f5efe4" stroke-opacity=".75" stroke-width="8"/>
  <g fill="none" stroke="#233b2d" stroke-width="8" stroke-linecap="round" opacity=".88">
    <path d="M986 454c-22-76-70-109-150-120"/>
    <path d="M884 366c-48 38-78 88-89 154"/>
    <path d="M1244 443c26-66 80-101 164-103"/>
  </g>
  <g fill="#4f6f52" opacity=".95">
    <circle cx="850" cy="329" r="18"/><circle cx="811" cy="354" r="15"/><circle cx="894" cy="371" r="21"/>
    <circle cx="1368" cy="336" r="20"/><circle cx="1415" cy="348" r="17"/><circle cx="1328" cy="376" r="16"/>
  </g>
  <rect x="990" y="610" width="470" height="42" rx="8" fill="#724d2c" opacity=".76"/>
  <rect x="1075" y="650" width="18" height="114" fill="#6e4b2d"/>
  <rect x="1350" y="650" width="18" height="114" fill="#6e4b2d"/>
  <rect x="742" y="703" width="365" height="88" rx="12" fill="url(#wood)"/>
  <rect x="798" y="790" width="18" height="110" fill="#8c5d36"/>
  <rect x="1022" y="790" width="18" height="110" fill="#8c5d36"/>
  <rect x="1242" y="712" width="235" height="78" rx="12" fill="url(#wood)"/>
  <rect x="1288" y="789" width="18" height="98" fill="#8c5d36"/>
  <rect x="1430" y="789" width="18" height="98" fill="#8c5d36"/>
  <rect x="1184" y="186" width="14" height="118" fill="#263328" opacity=".45"/>
  <circle cx="1191" cy="326" r="34" fill="#f4c16e" opacity=".82"/>
  <circle cx="1191" cy="326" r="54" fill="#f4c16e" opacity=".16"/>
  <rect x="1234" y="664" width="84" height="42" rx="21" fill="#f7f2e8" stroke="#d8c9ad" stroke-width="4"/>
  <rect x="1270" y="698" width="24" height="96" rx="12" fill="#c9a179"/>
</svg>
